{
  "accessors": [
    {
      "bufferView": 2,
      "componentType": 5126,
      "count": 10907,
      "max": [
        1.916532039642334,
        4.2349281311035156,
        7.9285588264465332
      ],
      "min": [
        -0.83951997756958008,
        -0.87742400169372559,
        5.4506001472473145
      ],
      "type": "VEC3"
    },
    {
      "bufferView": 2,
      "byteOffset": 130884,
      "componentType": 5126,
      "count": 10907,
      "max": [
        0.99996024370193481,
        0.99996620416641235,
        0.99993205070495605
      ],
      "min": [
        -0.99974751472473145,
        -0.99983608722686768,
        -0.99997037649154663
      ],
      "type": "VEC3"
    },
    {
      "bufferView": 3,
      "componentType": 5126,
      "count": 10907,
      "max": [
        0.99994558095932007,
        0.99786138534545898,
        0.99979281425476074,
        1
      ],
      "min": [
        -0.99976426362991333,
        -0.99779707193374634,
        -0.99983674287796021,
        1
      ],
      "type": "VEC4"
    },
    {
      "bufferView": 1,
      "componentType": 5126,
      "count": 10907,
      "max": [
        0.90533798933029175,
        0.99999701976776123
      ],
      "min": [
        1.8000000636675395e-05,
        8.6000000010244548e-05
      ],
      "type": "VEC2"
    },
    {
      "bufferView": 0,
      "componentType": 5125,
      "count": 60000,
      "max": [
        10906
      ],
      "min": [
        0
      ],
      "type": "SCALAR"
    }
  ],
  "asset": {
    "extras": {
      "author": "MicroPasts (https://sketchfab.com/micropasts)",
      "license": "CC-BY-4.0 (http://creativecommons.org/licenses/by/4.0/)",
      "source": "https://sketchfab.com/3d-models/alexander-the-great-1750a0cb994c4ff28f6f0a1981485dec",
      "title": "Alexander the Great"
    },
    "generator": "Sketchfab-5.97.1",
    "version": "2.0"
  },
  "bufferViews": [
    {
      "buffer": 0,
      "byteLength": 240000,
      "byteOffset": 0,
      "name": "floatBufferViews",
      "target": 34963
    },
    {
      "buffer": 0,
      "byteLength": 87256,
      "byteOffset": 240000,
      "byteStride": 8,
      "name": "floatBufferViews",
      "target": 34962
    },
    {
      "buffer": 0,
      "byteLength": 261768,
      "byteOffset": 327256,
      "byteStride": 12,
      "name": "floatBufferViews",
      "target": 34962
    },
    {
      "buffer": 0,
      "byteLength": 174512,
      "byteOffset": 589024,
      "byteStride": 16,
      "name": "floatBufferViews",
      "target": 34962
    }
  ],
  "buffers": [
    {
      "byteLength": 763536,
      "uri": "scene.bin"
    }
  ],
  "extensionsUsed": [
    "KHR_materials_unlit"
  ],
  "images": [
    {
      "uri": "textures/model_baseColor.jpeg"
    }
  ],
  "materials": [
    {
      "doubleSided": true,
      "emissiveFactor": [
        0,
        0,
        0
      ],
      "extensions": {
        "KHR_materials_unlit": {}
      },
      "name": "model",
      "pbrMetallicRoughness": {
        "baseColorFactor": [
          1,
          1,
          1,
          1
        ],
        "baseColorTexture": {
          "index": 0,
          "texCoord": 0
        },
        "metallicFactor": 0,
        "roughnessFactor": 1
      }
    }
  ],
  "meshes": [
    {
      "primitives": [
        {
          "attributes": {
            "NORMAL": 1,
            "POSITION": 0,
            "TANGENT": 2,
            "TEXCOORD_0": 3
          },
          "indices": 4,
          "material": 0,
          "mode": 4
        }
      ]
    }
  ],
  "nodes": [
    {
      "children": [
        1
      ],
      "name": "RootNode (gltf orientation matrix)",
      "rotation": [
        -0.70710678118654746,
        -0,
        -0,
        0.70710678118654757
      ]
    },
    {
      "children": [
        2
      ],
      "matrix": [
        1,
        -2.4651903288156619e-32,
        2.832769343193999e-16,
        0,
        -2.832769343193999e-16,
        -2.2204460492503131e-16,
        1,
        0,
        2.4651903288156619e-32,
        -1,
        -2.2204460492503131e-16,
        0,
        4.4408920985006262e-16,
        8.3683252334594727,
        5.0108332633972168,
        1
      ],
      "name": "RootNode (model correction matrix)"
    },
    {
      "children": [
        3
      ],
      "name": "model.obj.cleaner.materialmerger.gles"
    },
    {
      "mesh": 0,
      "name": ""
    }
  ],
  "samplers": [
    {
      "magFilter": 9729,
      "minFilter": 9987,
      "wrapS": 10497,
      "wrapT": 10497
    }
  ],
  "scene": 0,
  "scenes": [
    {
      "name": "OSG_Scene",
      "nodes": [
        0
      ]
    }
  ],
  "textures": [
    {
      "sampler": 0,
      "source": 0
    }
  ]
}

